P1
# Cruz 8x8
8 8
0 0 0 1 1 0 0 0
0 0 0 1 1 0 0 0
1 1 1 1 1 1 1 1
1 1 1 1 1 1 1 1
1 1 1 1 1 1 1 1
1 1 1 1 1 1 1 1
0 0 0 1 1 0 0 0
0 0 0 1 1 0 0 0